<?xml version="1.0" encoding="utf-8"?>
<!-- Generator: Adobe Illustrator 18.1.1, SVG Export Plug-In . SVG Version: 6.00 Build 0)  -->
<svg version="1.1" id="Capa_1" xmlns="http://www.w3.org/2000/svg" xmlns:xlink="http://www.w3.org/1999/xlink" x="0px" y="0px"
	 viewBox="-265 388.5 64.4 64.4" enable-background="new -265 388.5 64.4 64.4" xml:space="preserve">
<g>
	<g>
		<g>
			<path fill="#3A4051" d="M-203,452.7h-60c-1.1,0-2-0.9-2-2c0-1.1,0.9-2,2-2h60c1.1,0,2,0.9,2,2C-201,451.8-201.9,452.7-203,452.7z
				"/>
		</g>
		<g>
			<path fill="#3A4051" d="M-245.6,437.8c0,3.8-3.1,6.9-6.9,6.9h-5.1c-3.8,0-6.9-3.1-6.9-6.9v-20.1c0-3.8,3.1-6.9,6.9-6.9h5.1
				c3.8,0,6.9,3.1,6.9,6.9L-245.6,437.8L-245.6,437.8z M-249.6,417.6c0-1.6-1.3-2.9-2.9-2.9h-5.1c-1.6,0-2.9,1.3-2.9,2.9v20.1
				c0,1.6,1.3,2.9,2.9,2.9h5.1c1.6,0,2.9-1.3,2.9-2.9L-249.6,417.6L-249.6,417.6z"/>
		</g>
		<g>
			<path fill="#3A4051" d="M-222.6,437.8c0,3.8-3.1,6.9-6.9,6.9h-5.1c-3.8,0-6.9-3.1-6.9-6.9v-31.1c0-3.8,3.1-6.9,6.9-6.9h5.1
				c3.8,0,6.9,3.1,6.9,6.9V437.8z M-226.6,406.6c0-1.6-1.3-2.9-2.9-2.9h-5.1c-1.6,0-2.9,1.3-2.9,2.9v31.1c0,1.6,1.3,2.9,2.9,2.9h5.1
				c1.6,0,2.9-1.3,2.9-2.9V406.6z"/>
		</g>
		<g>
			<g>
				<g>
					<path fill="#4EB96E" d="M-212.8,403.7c-0.6,0-0.8-0.4-0.8-1v-6c0-2,1.6-2,2.3-2h2.4c0.6,0,1,0.4,1,1c0,0.6-0.4,1-1,1h-2.4
						c-0.3,0-0.5,0-0.6,0l0.1,6C-211.9,403.3-212.3,403.7-212.8,403.7z"/>
				</g>
				<g>
					<path fill="#4EB96E" d="M-213,405.9c-0.3,0-0.5-0.1-0.7-0.3c-0.2-0.2-0.3-0.5-0.3-0.7c0-0.3,0.1-0.5,0.3-0.7
						c0.4-0.4,1-0.4,1.4,0c0.2,0.2,0.3,0.4,0.3,0.7c0,0.3-0.1,0.5-0.3,0.7C-212.5,405.8-212.7,405.9-213,405.9z"/>
				</g>
			</g>
			<g>
				<path fill="#3A4051" d="M-200.6,437.8c0,3.8-3.1,6.9-6.9,6.9h-5.1c-3.8,0-6.9-3.1-6.9-6.9v-42.1c0-3.8,3.1-6.9,6.9-6.9h5.1
					c3.8,0,6.9,3.1,6.9,6.9L-200.6,437.8L-200.6,437.8z M-204.6,395.6c0-1.6-1.3-2.9-2.9-2.9h-5.1c-1.6,0-2.9,1.3-2.9,2.9v42.1
					c0,1.6,1.3,2.9,2.9,2.9h5.1c1.6,0,2.9-1.3,2.9-2.9L-204.6,395.6L-204.6,395.6z"/>
			</g>
		</g>
	</g>
</g>
</svg>
