<?xml version="1.0" encoding="utf-8"?>
<!-- Generator: Adobe Illustrator 18.1.1, SVG Export Plug-In . SVG Version: 6.00 Build 0)  -->
<svg version="1.1" id="Capa_1" xmlns="http://www.w3.org/2000/svg" xmlns:xlink="http://www.w3.org/1999/xlink" x="0px" y="0px"
	 viewBox="-264 388.9 65 65" enable-background="new -264 388.9 65 65" xml:space="preserve">
<g>
	<g>
		<g>
			<path fill="#373A4A" d="M-199,446.5c0,3.8-3.1,6.9-6.9,6.9h-51.1c-3.8,0-6.9-3.1-6.9-6.9v-50.1c0-3.8,3.1-6.9,6.9-6.9h51.1
				c3.8,0,6.9,3.1,6.9,6.9L-199,446.5L-199,446.5z M-203,396.3c0-1.6-1.3-2.9-2.9-2.9h-51.1c-1.6,0-2.9,1.3-2.9,2.9v50.1
				c0,1.6,1.3,2.9,2.9,2.9h51.1c1.6,0,2.9-1.3,2.9-2.9L-203,396.3L-203,396.3z"/>
		</g>
		<g>
			<path fill="#373A4A" d="M-201.4,404.4h-61c-0.6,0-1-0.4-1-1c0-0.6,0.4-1,1-1h61c0.6,0,1,0.4,1,1
				C-200.4,403.9-200.8,404.4-201.4,404.4z"/>
		</g>
		<g>
			<path fill="#373A4A" d="M-255.4,399.4h-1c-0.6,0-1-0.4-1-1c0-0.6,0.4-1,1-1h1c0.6,0,1,0.4,1,1
				C-254.4,398.9-254.8,399.4-255.4,399.4z"/>
		</g>
		<g>
			<path fill="#373A4A" d="M-248.4,399.4h-1c-0.6,0-1-0.4-1-1c0-0.6,0.4-1,1-1h1c0.6,0,1,0.4,1,1
				C-247.4,398.9-247.8,399.4-248.4,399.4z"/>
		</g>
		<g>
			<path fill="#373A4A" d="M-241.4,399.4h-1c-0.6,0-1-0.4-1-1c0-0.6,0.4-1,1-1h1c0.6,0,1,0.4,1,1
				C-240.4,398.9-240.8,399.4-241.4,399.4z"/>
		</g>
		<g>
			<g>
				<path fill="#FEB843" d="M-242.2,439.9c-0.3,0-0.6-0.1-0.8-0.4l-9.2-11.3c-0.3-0.4-0.3-0.9,0-1.3l5.6-7c0.3-0.4,1-0.5,1.4-0.1
					c0.4,0.3,0.5,1,0.1,1.4l-5.1,6.3l8.7,10.7c0.3,0.4,0.3,1.1-0.1,1.4C-241.8,439.8-242,439.9-242.2,439.9z"/>
			</g>
			<g>
				<path fill="#FEB843" d="M-243.1,418.4c-0.2,0-0.4-0.1-0.6-0.2c-0.4-0.3-0.5-1-0.1-1.4l0.9-1.1c0.3-0.4,1-0.5,1.4-0.1
					c0.4,0.3,0.5,1,0.1,1.4l-0.9,1.1C-242.5,418.2-242.8,418.4-243.1,418.4z"/>
			</g>
			<g>
				<path fill="#FEB843" d="M-220.5,439.9c-0.2,0-0.4-0.1-0.6-0.2c-0.4-0.3-0.5-1-0.1-1.4l8.7-10.7l-8.7-10.7
					c-0.3-0.4-0.3-1.1,0.1-1.4c0.4-0.3,1.1-0.3,1.4,0.1l9.2,11.3c0.3,0.4,0.3,0.9,0,1.3l-9.2,11.3
					C-220,439.7-220.3,439.9-220.5,439.9z"/>
			</g>
			<g>
				<path fill="#FEB843" d="M-235.5,434.6c-0.2,0-0.4-0.1-0.6-0.2c-0.4-0.3-0.5-1-0.1-1.4l9.2-11.3c0.3-0.4,1-0.5,1.4-0.1
					c0.4,0.3,0.5,1,0.1,1.4l-9.2,11.3C-235,434.4-235.3,434.6-235.5,434.6z"/>
			</g>
		</g>
	</g>
</g>
</svg>
