<?xml version="1.0" encoding="utf-8"?>
<!-- Generator: Adobe Illustrator 18.1.1, SVG Export Plug-In . SVG Version: 6.00 Build 0)  -->
<svg version="1.1" id="Capa_1" xmlns="http://www.w3.org/2000/svg" xmlns:xlink="http://www.w3.org/1999/xlink" x="0px" y="0px"
	 viewBox="-3 127.5 587.3 587.3" enable-background="new -3 127.5 587.3 587.3" xml:space="preserve">
<g>
	<g>
		<path fill="#373A4A" d="M503.6,196c-44.2,0-80.8,36.6-80.8,80.8c0,30.6,17.9,57.8,43.4,71.4l-42.5,121.5
			c-4.2-0.9-9.4-1.7-14.4-1.7c-12.8,0-23.8,2.5-34.9,7.6L280.1,377c4.2-10.2,6.8-21.2,6.8-32.3c0-44.2-36.6-80.8-80.8-80.8
			s-80.8,36.5-80.8,80.8c0,24.6,11.1,47.6,28.9,62l-40.8,86.7c-11.1-5.1-22.9-8.5-35.7-8.5C33.6,485-3,521.5-3,565.7
			s36.5,80.8,80.8,80.8s80.8-36.5,80.8-80.8c0-19.5-6.8-36.5-17.9-51l43.4-92.6c6.8,1.7,13.6,2.6,21.2,2.6
			c20.4,0,39.1-7.6,53.5-20.4l89.2,91.8c-11.9,14.5-18.7,32.3-18.7,51.9c0,44.2,36.6,80.8,80.8,80.8c44.2,0,80.8-36.6,80.8-80.8
			c0-27.2-13.6-51.9-34.9-66.3l43.4-125c1.7,0,3.4,0,4.2,0c44.2,0,80.8-36.5,80.8-80.8C584.3,232.5,547.8,196,503.6,196z
			 M78.6,612.5c-25.5,0-46.8-21.2-46.8-46.8S53.1,519,78.6,519s46.8,21.2,46.8,46.8S104.1,612.5,78.6,612.5z M206.1,391.5
			c-25.5,0-46.8-21.2-46.8-46.8s21.2-46.8,46.8-46.8s46.8,21.2,46.8,46.8S231.6,391.5,206.1,391.5z M410.1,595.5
			c-25.5,0-46.8-21.2-46.8-46.8s21.2-46.8,46.8-46.8s46.8,21.2,46.8,46.8S435.6,595.5,410.1,595.5z M503.6,323.5
			c-25.5,0-46.8-21.2-46.8-46.8s21.2-46.8,46.8-46.8c25.5,0,46.7,21.2,46.7,46.8S529.1,323.5,503.6,323.5z"/>
		<path fill="#F62459" d="M512.1,242.7c-14.4,0-27.2,6.8-34.9,18.7c-2.6,4.2-1.7,9.4,2.6,11.9c1.7,0.9,3.4,1.7,5.1,1.7
			c2.5,0,5.1-1.7,6.8-3.4c4.2-7.6,11.9-11.9,20.4-11.9c5.1,0,8.5-3.4,8.5-8.5C520.6,247,517.2,242.7,512.1,242.7z"/>
	</g>
</g>
</svg>
