<?xml version="1.0" encoding="utf-8"?>
<!-- Generator: Adobe Illustrator 18.1.1, SVG Export Plug-In . SVG Version: 6.00 Build 0)  -->
<svg version="1.1" id="Capa_1" xmlns="http://www.w3.org/2000/svg" xmlns:xlink="http://www.w3.org/1999/xlink" x="0px" y="0px"
	 viewBox="-263 387.9 67 67" enable-background="new -263 387.9 67 67" xml:space="preserve">
<g>
	<g>
		<g>
			<path fill="#373A4A" d="M-229.5,449.1c-11.8,0-33.5-8.9-33.5-21.5c0-12.6,21.7-21.5,33.5-21.5c11.8,0,33.5,8.9,33.5,21.5
				C-196,440.3-217.7,449.1-229.5,449.1z M-229.5,410.1c-11.1,0-29.5,8.2-29.5,17.5c0,9.3,18.4,17.5,29.5,17.5
				c11.1,0,29.5-8.2,29.5-17.5C-200,418.3-218.4,410.1-229.5,410.1z"/>
		</g>
		<g>
			<path fill="#4EB96E" d="M-229.5,438.3c-5.8,0-10.5-4.7-10.5-10.5c0-5.8,4.7-10.5,10.5-10.5c5.8,0,10.5,4.7,10.5,10.5
				C-219,433.6-223.7,438.3-229.5,438.3z M-229.5,419.3c-4.7,0-8.5,3.8-8.5,8.5c0,4.7,3.8,8.5,8.5,8.5c4.7,0,8.5-3.8,8.5-8.5
				C-221,423.1-224.8,419.3-229.5,419.3z"/>
		</g>
		<g>
			<path fill="#373A4A" d="M-233.4,425.2c-0.2,0-0.5-0.1-0.7-0.3c-0.4-0.4-0.4-1-0.1-1.4c0.2-0.2,0.4-0.4,0.6-0.6
				c0.4-0.4,1.1-0.3,1.4,0.1c0.4,0.4,0.3,1.1-0.1,1.4c-0.2,0.1-0.3,0.3-0.4,0.4C-232.9,425.1-233.2,425.2-233.4,425.2z"/>
		</g>
		<g>
			<path fill="#373A4A" d="M-229.5,434.1c-3.5,0-6.3-2.8-6.3-6.3c0-0.6,0.4-1,1-1c0.6,0,1,0.4,1,1c0,2.4,1.9,4.3,4.3,4.3
				c0.6,0,1,0.4,1,1C-228.5,433.7-228.9,434.1-229.5,434.1z"/>
		</g>
		<g>
			<path fill="#373A4A" d="M-229.6,403.6c-1.1,0-2-0.9-2-2v-6c0-1.1,0.9-2,2-2c1.1,0,2,0.9,2,2v6
				C-227.6,402.7-228.5,403.6-229.6,403.6z"/>
		</g>
		<g>
			<path fill="#373A4A" d="M-241.1,404.3c-0.7,0-1.4-0.4-1.8-1.1l-1.9-3.7c-0.5-1-0.1-2.2,0.9-2.7c1-0.5,2.2-0.1,2.7,0.9l1.9,3.7
				c0.5,1,0.1,2.2-0.9,2.7C-240.5,404.3-240.8,404.3-241.1,404.3z"/>
		</g>
		<g>
			<path fill="#373A4A" d="M-252.8,409c-0.5,0-1.1-0.2-1.5-0.7l-2.6-2.9c-0.7-0.8-0.7-2.1,0.2-2.8c0.8-0.7,2.1-0.7,2.8,0.2l2.6,2.9
				c0.7,0.8,0.7,2.1-0.2,2.8C-251.9,408.8-252.3,409-252.8,409z"/>
		</g>
		<g>
			<path fill="#373A4A" d="M-218.9,404.3c-0.3,0-0.6-0.1-0.9-0.2c-1-0.5-1.4-1.7-0.9-2.7l1.9-3.7c0.5-1,1.7-1.4,2.7-0.9
				c1,0.5,1.4,1.7,0.9,2.7l-1.9,3.7C-217.5,403.9-218.2,404.3-218.9,404.3z"/>
		</g>
		<g>
			<path fill="#373A4A" d="M-207.3,409c-0.5,0-1-0.2-1.3-0.5c-0.8-0.7-0.9-2-0.1-2.8l2.6-2.9c0.7-0.8,2-0.9,2.8-0.2
				c0.8,0.7,0.9,2,0.1,2.8l-2.6,2.9C-206.2,408.7-206.7,409-207.3,409z"/>
		</g>
	</g>
</g>
</svg>
