<?xml version="1.0" encoding="utf-8"?>
<!-- Generator: Adobe Illustrator 18.1.1, SVG Export Plug-In . SVG Version: 6.00 Build 0)  -->
<svg version="1.1" id="Capa_1" xmlns="http://www.w3.org/2000/svg" xmlns:xlink="http://www.w3.org/1999/xlink" x="0px" y="0px"
	 viewBox="-264 388 66.8 66.8" enable-background="new -264 388 66.8 66.8" xml:space="preserve">
<g>
	<g>
		<g>
			<path fill="#373A4A" d="M-212.6,454.8c-3.7,0-7.3-1.3-10.1-3.7c-0.8-0.7-0.9-2-0.2-2.8c0.7-0.8,2-0.9,2.8-0.2
				c2.1,1.8,4.7,2.8,7.4,2.8c6.3,0,11.4-5.1,11.4-11.4c0-3-1.1-5.8-3.2-7.9c-0.8-0.8-0.7-2.1,0.1-2.8c0.8-0.8,2.1-0.7,2.8,0.1
				c2.8,2.9,4.3,6.7,4.3,10.7C-197.1,447.9-204.1,454.8-212.6,454.8z"/>
		</g>
		<g>
			<path fill="#373A4A" d="M-248.6,454.5c-8.5,0-15.4-6.9-15.4-15.4c0-3.7,1.3-7.3,3.7-10.1c0.7-0.8,2-0.9,2.8-0.2
				c0.8,0.7,0.9,2,0.2,2.8c-1.8,2.1-2.8,4.7-2.8,7.4c0,6.3,5.1,11.4,11.4,11.4c3,0,5.8-1.1,7.9-3.2c0.8-0.8,2.1-0.7,2.8,0.1
				c0.8,0.8,0.7,2.1-0.1,2.8C-240.7,453-244.6,454.5-248.6,454.5z"/>
		</g>
		<g>
			<path fill="#373A4A" d="M-258.2,415.6c-0.5,0-1-0.2-1.4-0.6c-2.8-2.9-4.3-6.7-4.3-10.7c0-8.5,6.9-15.4,15.4-15.4
				c4.3,0,8.2,1.6,11.3,4.6c0.8,0.8,0.8,2,0.1,2.8c-0.8,0.8-2,0.8-2.8,0.1c-2.4-2.3-5.3-3.5-8.5-3.5c-6.3,0-11.4,5.1-11.4,11.4
				c0,3,1.1,5.8,3.2,7.9c0.8,0.8,0.7,2.1-0.1,2.8C-257.2,415.4-257.7,415.6-258.2,415.6z"/>
		</g>
		<g>
			<path fill="#373A4A" d="M-203.5,414.3c-0.5,0-0.9-0.2-1.3-0.5c-0.8-0.7-0.9-2-0.2-2.8c1.8-2.1,2.8-4.7,2.8-7.4
				c0-6.3-5.1-11.4-11.4-11.4c-3,0-5.9,1.4-7.8,3.7c-0.7,0.9-2,1-2.8,0.3c-0.9-0.7-1-2-0.3-2.8c2.7-3.3,6.7-5.2,10.9-5.2
				c8.5,0,15.4,6.9,15.4,15.4c0,3.7-1.3,7.3-3.7,10C-202.3,414.1-202.9,414.3-203.5,414.3z"/>
		</g>
		<g>
			<g>
				<path fill="#F62459" d="M-203,416.8h-9c-0.6,0-1-0.4-1-1c0-0.6,0.4-1,1-1h9c0.6,0,1,0.4,1,1C-202,416.3-202.4,416.8-203,416.8z"
					/>
			</g>
			<g>
				<path fill="#F62459" d="M-216,416.8h-4c-0.6,0-1-0.4-1-1c0-0.6,0.4-1,1-1h4c0.6,0,1,0.4,1,1C-215,416.3-215.4,416.8-216,416.8z"
					/>
			</g>
			<g>
				<path fill="#F62459" d="M-203,429.8h-17c-0.6,0-1-0.4-1-1c0-0.6,0.4-1,1-1h17c0.6,0,1,0.4,1,1C-202,429.3-202.4,429.8-203,429.8
					z"/>
			</g>
		</g>
		<g>
			<g>
				<path fill="#F62459" d="M-241,416.8h-17c-0.6,0-1-0.4-1-1c0-0.6,0.4-1,1-1h17c0.6,0,1,0.4,1,1C-240,416.3-240.4,416.8-241,416.8
					z"/>
			</g>
			<g>
				<path fill="#F62459" d="M-241,429.8h-17c-0.6,0-1-0.4-1-1c0-0.6,0.4-1,1-1h17c0.6,0,1,0.4,1,1C-240,429.3-240.4,429.8-241,429.8
					z"/>
			</g>
		</g>
		<g>
			<g>
				<path fill="#F62459" d="M-223.6,450.8c-0.6,0-1-0.4-1-1v-17c0-0.6,0.4-1,1-1c0.6,0,1,0.4,1,1v17
					C-222.6,450.3-223,450.8-223.6,450.8z"/>
			</g>
			<g>
				<path fill="#F62459" d="M-236.6,450.8c-0.6,0-1-0.4-1-1v-5c0-0.6,0.4-1,1-1c0.6,0,1,0.4,1,1v5
					C-235.6,450.3-236,450.8-236.6,450.8z"/>
			</g>
			<g>
				<path fill="#F62459" d="M-236.6,441.8c-0.6,0-1-0.4-1-1v-8c0-0.6,0.4-1,1-1c0.6,0,1,0.4,1,1v8
					C-235.6,441.3-236,441.8-236.6,441.8z"/>
			</g>
		</g>
		<g>
			<g>
				<path fill="#F62459" d="M-223.6,413.8c-0.6,0-1-0.4-1-1v-18c0-0.6,0.4-1,1-1c0.6,0,1,0.4,1,1v18
					C-222.6,413.3-223,413.8-223.6,413.8z"/>
			</g>
			<g>
				<path fill="#F62459" d="M-236.6,412.8c-0.6,0-1-0.4-1-1v-17c0-0.6,0.4-1,1-1c0.6,0,1,0.4,1,1v17
					C-235.6,412.3-236,412.8-236.6,412.8z"/>
			</g>
		</g>
		<g>
			<path fill="#373A4A" d="M-230.5,435.4c-7.1,0-12.9-5.8-12.9-12.9c0-7.1,5.8-12.9,12.9-12.9s12.9,5.8,12.9,12.9
				C-217.6,429.6-223.4,435.4-230.5,435.4z M-230.5,411.6c-6,0-10.9,4.9-10.9,10.9c0,6,4.9,10.9,10.9,10.9c6,0,10.9-4.9,10.9-10.9
				C-219.6,416.5-224.5,411.6-230.5,411.6z"/>
		</g>
		<g>
			<path fill="#373A4A" d="M-230.5,452.1c-16.3,0-29.6-13.3-29.6-29.6c0-16.3,13.3-29.6,29.6-29.6c16.3,0,29.6,13.3,29.6,29.6
				C-200.9,438.8-214.2,452.1-230.5,452.1z M-230.5,397c-14.1,0-25.6,11.5-25.6,25.6c0,14.1,11.5,25.6,25.6,25.6
				c14.1,0,25.6-11.5,25.6-25.6C-204.9,408.4-216.4,397-230.5,397z"/>
		</g>
	</g>
</g>
</svg>
